<svg width="40" height="40" viewBox="0 0 40 40" fill="none" xmlns="http://www.w3.org/2000/svg">
<rect x="0.25" y="0.25" width="39.5" height="39.5" rx="19.75" stroke="#363636" stroke-width="0.5"/>
<path d="M21.4102 20.0022L27.6951 13.7171C27.7905 13.625 27.8666 13.5148 27.9189 13.3929C27.9713 13.2711 27.9988 13.14 28 13.0074C28.0011 12.8748 27.9758 12.7433 27.9256 12.6206C27.8754 12.4978 27.8012 12.3863 27.7075 12.2925C27.6137 12.1987 27.5022 12.1246 27.3794 12.0744C27.2567 12.0242 27.1252 11.9989 26.9926 12C26.86 12.0012 26.7289 12.0287 26.6071 12.0811C26.4852 12.1334 26.375 12.2095 26.2829 12.3049L19.9978 18.5897L13.7129 12.3049C13.5249 12.121 13.272 12.0187 13.0091 12.0202C12.7461 12.0216 12.4943 12.1267 12.3084 12.3126C12.1224 12.4986 12.0173 12.7503 12.0158 13.0132C12.0143 13.2762 12.1166 13.5291 12.3004 13.7171L18.5855 20.0022L12.3004 26.2872C12.206 26.3796 12.1308 26.4898 12.0792 26.6114C12.0277 26.733 12.0007 26.8637 12 26.9958C11.9993 27.1279 12.0248 27.2588 12.075 27.381C12.1252 27.5031 12.1992 27.6141 12.2926 27.7075C12.386 27.8009 12.497 27.8749 12.6192 27.9251C12.7414 27.9753 12.8723 28.0007 13.0044 28C13.1365 27.9992 13.2672 27.9723 13.3888 27.9207C13.5104 27.8691 13.6205 27.7939 13.7129 27.6995L19.9978 21.4147L26.2829 27.6995C26.4779 27.8945 26.7336 27.9921 26.989 27.9921C27.2444 27.9921 27.5003 27.8945 27.6951 27.6995C27.8823 27.5122 27.9875 27.2582 27.9875 26.9934C27.9875 26.7285 27.8823 26.4745 27.6951 26.2872L21.4102 20.0022Z" fill="#363636"/>
</svg>
