<svg width="18" height="18" viewBox="0 0 18 18" fill="none" xmlns="http://www.w3.org/2000/svg">
<g clip-path="url(#clip0_2_21)">
<path d="M2.5575 8.25H3.99V13.98H2.5575C2.18272 13.9801 1.82283 13.8333 1.55503 13.5711C1.28723 13.3089 1.13285 12.9522 1.125 12.5775V9.75C1.11587 9.55628 1.14616 9.36272 1.21405 9.18106C1.28193 8.99939 1.386 8.8334 1.51994 8.69315C1.65388 8.55289 1.81491 8.4413 1.99326 8.36513C2.17161 8.28895 2.36357 8.24979 2.5575 8.25Z" stroke="black" stroke-miterlimit="10"/>
<path d="M14.01 8.25H15.4425C15.6364 8.24979 15.8284 8.28895 16.0068 8.36513C16.1851 8.4413 16.3461 8.55289 16.4801 8.69315C16.614 8.8334 16.7181 8.99939 16.786 9.18106C16.8539 9.36272 16.8841 9.55628 16.875 9.75V12.615C16.875 12.9949 16.7241 13.3593 16.4554 13.6279C16.1868 13.8966 15.8224 14.0475 15.4425 14.0475H14.01V8.25Z" stroke="black" stroke-miterlimit="10"/>
<path d="M14.73 14.01C14.73 14.7699 14.4282 15.4986 13.8909 16.0359C13.3536 16.5732 12.6248 16.875 11.865 16.875H9" stroke="black" stroke-miterlimit="10"/>
<path d="M3.27002 8.2875V6.855C3.27002 5.33531 3.87371 3.87786 4.9483 2.80328C6.02288 1.72869 7.48033 1.125 9.00002 1.125C10.5197 1.125 11.9772 1.72869 13.0517 2.80328C14.1263 3.87786 14.73 5.33531 14.73 6.855V8.2875" stroke="black" stroke-miterlimit="10"/>
</g>
<defs>
<clipPath id="clip0_2_21">
<rect width="18" height="18" fill="white"/>
</clipPath>
</defs>
</svg>
