<svg width="22" height="22" viewBox="0 0 22 22" fill="none" xmlns="http://www.w3.org/2000/svg">
<path opacity="0.5" d="M16.9584 0.000535774C16.1803 0.0110904 15.4366 0.323391 14.8842 0.871593L0.879081 14.8765C0.319461 15.4388 0.00612792 16.2004 0.00800866 16.9937L8.03358e-06 20.9959C-0.000521056 21.1279 0.0250891 21.2587 0.0753617 21.3808C0.125634 21.5028 0.199574 21.6137 0.292918 21.7071C0.386261 21.8004 0.497161 21.8744 0.61922 21.9246C0.74128 21.9749 0.872085 22.0005 1.00409 22L5.00642 21.992C5.39924 21.993 5.7884 21.9166 6.15168 21.7671C6.51495 21.6176 6.84521 21.3981 7.1236 21.1209L21.1288 7.11601C21.687 6.55074 22 5.7883 22 4.99387C22 4.19944 21.687 3.43699 21.1288 2.87173L19.1286 0.871593C18.8437 0.588426 18.5047 0.365403 18.1319 0.21577C17.7591 0.0661356 17.3601 -0.00705783 16.9584 0.000535774ZM16.9884 1.99267C17.2584 1.98867 17.5185 2.09667 17.7105 2.28769L19.7127 4.28982C19.8072 4.3813 19.8824 4.49086 19.9337 4.61198C19.9851 4.7331 20.0115 4.86331 20.0115 4.99487C20.0115 5.12642 19.9851 5.25663 19.9337 5.37775C19.8824 5.49888 19.8072 5.60843 19.7127 5.69991L18.4175 6.993L15.0073 3.58277L16.3004 2.28769C16.4824 2.10386 16.7298 1.99806 16.9884 1.99267ZM13.5931 4.99687L17.0034 8.40709L6.41454 18.9958L3.00426 15.5856L13.5931 4.99687ZM2.00017 17.4097L4.58839 19.9979H2.00017V17.4097Z" fill="#363636"/>
</svg>
